{
 "cells": [
  {
   "cell_type": "code",
   "execution_count": 1,
   "id": "a0ce4b9f-5f59-4a76-8389-7ed1dedc12c3",
   "metadata": {
    "scrolled": true,
    "tags": []
   },
   "outputs": [
    {
     "name": "stdout",
     "output_type": "stream",
     "text": [
      "Requirement already satisfied: pytube in /opt/conda/lib/python3.8/site-packages (12.1.0)\n",
      "\u001b[33mWARNING: Running pip as the 'root' user can result in broken permissions and conflicting behaviour with the system package manager. It is recommended to use a virtual environment instead: https://pip.pypa.io/warnings/venv\u001b[0m\n",
      "128 packages can be upgraded. Run 'apt list --upgradable' to see them.\n",
      "ffmpeg is already the newest version (7:4.2.7-0ubuntu0.1).\n",
      "0 upgraded, 0 newly installed, 0 to remove and 128 not upgraded.\n",
      "Requirement already satisfied: librosa in /opt/conda/lib/python3.8/site-packages (0.9.2)\n",
      "Requirement already satisfied: soundfile>=0.10.2 in /opt/conda/lib/python3.8/site-packages (from librosa) (0.10.3.post1)\n",
      "Requirement already satisfied: packaging>=20.0 in /opt/conda/lib/python3.8/site-packages (from librosa) (21.0)\n",
      "Requirement already satisfied: numba>=0.45.1 in /opt/conda/lib/python3.8/site-packages (from librosa) (0.51.2)\n",
      "Requirement already satisfied: pooch>=1.0 in /opt/conda/lib/python3.8/site-packages (from librosa) (1.6.0)\n",
      "Requirement already satisfied: resampy>=0.2.2 in /opt/conda/lib/python3.8/site-packages (from librosa) (0.2.2)\n",
      "Requirement already satisfied: joblib>=0.14 in /opt/conda/lib/python3.8/site-packages (from librosa) (1.1.0)\n",
      "Requirement already satisfied: numpy>=1.17.0 in /opt/conda/lib/python3.8/site-packages (from librosa) (1.19.5)\n",
      "Requirement already satisfied: scikit-learn>=0.19.1 in /opt/conda/lib/python3.8/site-packages (from librosa) (0.22.2.post1)\n",
      "Requirement already satisfied: scipy>=1.2.0 in /opt/conda/lib/python3.8/site-packages (from librosa) (1.4.1)\n",
      "Requirement already satisfied: audioread>=2.1.9 in /opt/conda/lib/python3.8/site-packages (from librosa) (2.1.9)\n",
      "Requirement already satisfied: decorator>=4.0.10 in /opt/conda/lib/python3.8/site-packages (from librosa) (5.1.0)\n",
      "Requirement already satisfied: setuptools in /opt/conda/lib/python3.8/site-packages (from numba>=0.45.1->librosa) (58.0.4)\n",
      "Requirement already satisfied: llvmlite<0.35,>=0.34.0.dev0 in /opt/conda/lib/python3.8/site-packages (from numba>=0.45.1->librosa) (0.34.0)\n",
      "Requirement already satisfied: pyparsing>=2.0.2 in /opt/conda/lib/python3.8/site-packages (from packaging>=20.0->librosa) (2.4.7)\n",
      "Requirement already satisfied: appdirs>=1.3.0 in /opt/conda/lib/python3.8/site-packages (from pooch>=1.0->librosa) (1.4.4)\n",
      "Requirement already satisfied: requests>=2.19.0 in /opt/conda/lib/python3.8/site-packages (from pooch>=1.0->librosa) (2.26.0)\n",
      "Requirement already satisfied: charset-normalizer~=2.0.0 in /opt/conda/lib/python3.8/site-packages (from requests>=2.19.0->pooch>=1.0->librosa) (2.0.0)\n",
      "Requirement already satisfied: idna<4,>=2.5 in /opt/conda/lib/python3.8/site-packages (from requests>=2.19.0->pooch>=1.0->librosa) (3.1)\n",
      "Requirement already satisfied: certifi>=2017.4.17 in /opt/conda/lib/python3.8/site-packages (from requests>=2.19.0->pooch>=1.0->librosa) (2021.5.30)\n",
      "Requirement already satisfied: urllib3<1.27,>=1.21.1 in /opt/conda/lib/python3.8/site-packages (from requests>=2.19.0->pooch>=1.0->librosa) (1.26.7)\n",
      "Requirement already satisfied: six>=1.3 in /opt/conda/lib/python3.8/site-packages (from resampy>=0.2.2->librosa) (1.15.0)\n",
      "Requirement already satisfied: cffi>=1.0 in /opt/conda/lib/python3.8/site-packages (from soundfile>=0.10.2->librosa) (1.14.6)\n",
      "Requirement already satisfied: pycparser in /opt/conda/lib/python3.8/site-packages (from cffi>=1.0->soundfile>=0.10.2->librosa) (2.20)\n",
      "\u001b[33mWARNING: Running pip as the 'root' user can result in broken permissions and conflicting behaviour with the system package manager. It is recommended to use a virtual environment instead: https://pip.pypa.io/warnings/venv\u001b[0m\n"
     ]
    }
   ],
   "source": [
    "!pip install pytube\n",
    "!apt -qq -y update\n",
    "!apt -qq -y install ffmpeg\n",
    "# !pip install pydub\n",
    "!pip install librosa"
   ]
  },
  {
   "cell_type": "code",
   "execution_count": 14,
   "id": "ceca23b9-b80c-4d2a-9973-42bf11e57a5f",
   "metadata": {},
   "outputs": [
    {
     "name": "stdout",
     "output_type": "stream",
     "text": [
      "<Stream: itag=\"17\" mime_type=\"video/3gpp\" res=\"144p\" fps=\"8fps\" vcodec=\"mp4v.20.3\" acodec=\"mp4a.40.2\" progressive=\"True\" type=\"video\">\n",
      "<Stream: itag=\"18\" mime_type=\"video/mp4\" res=\"360p\" fps=\"30fps\" vcodec=\"avc1.42001E\" acodec=\"mp4a.40.2\" progressive=\"True\" type=\"video\">\n",
      "<Stream: itag=\"22\" mime_type=\"video/mp4\" res=\"720p\" fps=\"30fps\" vcodec=\"avc1.64001F\" acodec=\"mp4a.40.2\" progressive=\"True\" type=\"video\">\n",
      "<Stream: itag=\"137\" mime_type=\"video/mp4\" res=\"1080p\" fps=\"30fps\" vcodec=\"avc1.640028\" progressive=\"False\" type=\"video\">\n",
      "<Stream: itag=\"248\" mime_type=\"video/webm\" res=\"1080p\" fps=\"30fps\" vcodec=\"vp9\" progressive=\"False\" type=\"video\">\n",
      "<Stream: itag=\"136\" mime_type=\"video/mp4\" res=\"720p\" fps=\"30fps\" vcodec=\"avc1.4d401f\" progressive=\"False\" type=\"video\">\n",
      "<Stream: itag=\"247\" mime_type=\"video/webm\" res=\"720p\" fps=\"30fps\" vcodec=\"vp9\" progressive=\"False\" type=\"video\">\n",
      "<Stream: itag=\"135\" mime_type=\"video/mp4\" res=\"480p\" fps=\"30fps\" vcodec=\"avc1.4d401f\" progressive=\"False\" type=\"video\">\n",
      "<Stream: itag=\"244\" mime_type=\"video/webm\" res=\"480p\" fps=\"30fps\" vcodec=\"vp9\" progressive=\"False\" type=\"video\">\n",
      "<Stream: itag=\"134\" mime_type=\"video/mp4\" res=\"360p\" fps=\"30fps\" vcodec=\"avc1.4d401e\" progressive=\"False\" type=\"video\">\n",
      "<Stream: itag=\"243\" mime_type=\"video/webm\" res=\"360p\" fps=\"30fps\" vcodec=\"vp9\" progressive=\"False\" type=\"video\">\n",
      "<Stream: itag=\"133\" mime_type=\"video/mp4\" res=\"240p\" fps=\"30fps\" vcodec=\"avc1.4d4015\" progressive=\"False\" type=\"video\">\n",
      "<Stream: itag=\"242\" mime_type=\"video/webm\" res=\"240p\" fps=\"30fps\" vcodec=\"vp9\" progressive=\"False\" type=\"video\">\n",
      "<Stream: itag=\"160\" mime_type=\"video/mp4\" res=\"144p\" fps=\"30fps\" vcodec=\"avc1.4d400c\" progressive=\"False\" type=\"video\">\n",
      "<Stream: itag=\"278\" mime_type=\"video/webm\" res=\"144p\" fps=\"30fps\" vcodec=\"vp9\" progressive=\"False\" type=\"video\">\n",
      "<Stream: itag=\"139\" mime_type=\"audio/mp4\" abr=\"48kbps\" acodec=\"mp4a.40.5\" progressive=\"False\" type=\"audio\">\n",
      "<Stream: itag=\"140\" mime_type=\"audio/mp4\" abr=\"128kbps\" acodec=\"mp4a.40.2\" progressive=\"False\" type=\"audio\">\n",
      "<Stream: itag=\"249\" mime_type=\"audio/webm\" abr=\"50kbps\" acodec=\"opus\" progressive=\"False\" type=\"audio\">\n",
      "<Stream: itag=\"250\" mime_type=\"audio/webm\" abr=\"70kbps\" acodec=\"opus\" progressive=\"False\" type=\"audio\">\n",
      "<Stream: itag=\"251\" mime_type=\"audio/webm\" abr=\"160kbps\" acodec=\"opus\" progressive=\"False\" type=\"audio\">\n",
      " ↳ |████████████████████████████████████████████| 100.0%\r"
     ]
    },
    {
     "name": "stderr",
     "output_type": "stream",
     "text": [
      "/tmp/ipykernel_49199/1447806502.py:13: DeprecationWarning: Call to deprecated function all (This object can be treated as a list, all() is useless).\n",
      "  f = yt.streams.filter().all()\n"
     ]
    },
    {
     "name": "stdout",
     "output_type": "stream",
     "text": [
      "/workspace/youtube_download/./[TJ노래방] 나의 X에게 - 경서  TJ Karaoke.mp3\n",
      "/workspace/youtube_download/./[TJ노래방] 나의 X에게 - 경서  TJ Karaoke.mp4\n"
     ]
    }
   ],
   "source": [
    "import os\n",
    "import pytube # pip install pytube\n",
    "from pytube.cli import on_progress\n",
    "import shutil\n",
    "\n",
    "###################################################\n",
    "url = \"https://www.youtube.com/watch?v=zNQTrAE9JPc\"\n",
    "###################################################\n",
    "\n",
    "\n",
    "yt = pytube.YouTube(url, on_progress_callback=on_progress)\n",
    "\n",
    "f = yt.streams.filter().all()\n",
    "for f_ in f:\n",
    "    print(f_)\n",
    "\n",
    "save_dir = \"./\"\n",
    "\n",
    "# get light audio only(mp3)\n",
    "video = yt.streams.filter(only_audio=True).first()\n",
    "out_file = video.download(save_dir)\n",
    "base, ext = os.path.splitext(out_file)\n",
    "new_file = base + '.mp3'\n",
    "shutil.copy(out_file, new_file)\n",
    "print(new_file)\n",
    "\n",
    "# get highest video(mp4)\n",
    "best = yt.streams.get_highest_resolution()\n",
    "mp4file = best.download(save_dir)\n",
    "print(mp4file)\n",
    "\n",
    "# get 720p\n",
    "# video_720p = yt.streams.filter(resolution='720p').first()\n",
    "# mp4file = video_720p.download(save_dir)\n",
    "# print(mp4file)"
   ]
  },
  {
   "cell_type": "code",
   "execution_count": 16,
   "id": "51ea677b-247c-4906-9a12-3d3b105fa0a8",
   "metadata": {
    "scrolled": true,
    "tags": []
   },
   "outputs": [
    {
     "name": "stderr",
     "output_type": "stream",
     "text": [
      "ffmpeg version 4.2.7-0ubuntu0.1 Copyright (c) 2000-2022 the FFmpeg developers\n",
      "  built with gcc 9 (Ubuntu 9.4.0-1ubuntu1~20.04.1)\n",
      "  configuration: --prefix=/usr --extra-version=0ubuntu0.1 --toolchain=hardened --libdir=/usr/lib/x86_64-linux-gnu --incdir=/usr/include/x86_64-linux-gnu --arch=amd64 --enable-gpl --disable-stripping --enable-avresample --disable-filter=resample --enable-avisynth --enable-gnutls --enable-ladspa --enable-libaom --enable-libass --enable-libbluray --enable-libbs2b --enable-libcaca --enable-libcdio --enable-libcodec2 --enable-libflite --enable-libfontconfig --enable-libfreetype --enable-libfribidi --enable-libgme --enable-libgsm --enable-libjack --enable-libmp3lame --enable-libmysofa --enable-libopenjpeg --enable-libopenmpt --enable-libopus --enable-libpulse --enable-librsvg --enable-librubberband --enable-libshine --enable-libsnappy --enable-libsoxr --enable-libspeex --enable-libssh --enable-libtheora --enable-libtwolame --enable-libvidstab --enable-libvorbis --enable-libvpx --enable-libwavpack --enable-libwebp --enable-libx265 --enable-libxml2 --enable-libxvid --enable-libzmq --enable-libzvbi --enable-lv2 --enable-omx --enable-openal --enable-opencl --enable-opengl --enable-sdl2 --enable-libdc1394 --enable-libdrm --enable-libiec61883 --enable-nvenc --enable-chromaprint --enable-frei0r --enable-libx264 --enable-shared\n",
      "  libavutil      56. 31.100 / 56. 31.100\n",
      "  libavcodec     58. 54.100 / 58. 54.100\n",
      "  libavformat    58. 29.100 / 58. 29.100\n",
      "  libavdevice    58.  8.100 / 58.  8.100\n",
      "  libavfilter     7. 57.100 /  7. 57.100\n",
      "  libavresample   4.  0.  0 /  4.  0.  0\n",
      "  libswscale      5.  5.100 /  5.  5.100\n",
      "  libswresample   3.  5.100 /  3.  5.100\n",
      "  libpostproc    55.  5.100 / 55.  5.100\n",
      "Input #0, mov,mp4,m4a,3gp,3g2,mj2, from 'SHAUN숀-WayBackHomeCOVER.mp3':\n",
      "  Metadata:\n",
      "    major_brand     : dash\n",
      "    minor_version   : 0\n",
      "    compatible_brands: iso6mp41\n",
      "    creation_time   : 2021-01-10T10:24:37.000000Z\n",
      "  Duration: 00:03:50.25, start: 0.000000, bitrate: 48 kb/s\n",
      "    Stream #0:0(eng): Audio: aac (HE-AAC) (mp4a / 0x6134706D), 44100 Hz, stereo, fltp, 2 kb/s (default)\n",
      "    Metadata:\n",
      "      creation_time   : 2021-01-10T10:24:37.000000Z\n",
      "      handler_name    : ISO Media file produced by Google Inc.\n",
      "File 'temp.wav' already exists. Overwrite ? [y/N] Not overwriting - exiting\n"
     ]
    },
    {
     "data": {
      "text/plain": [
       "256"
      ]
     },
     "execution_count": 16,
     "metadata": {},
     "output_type": "execute_result"
    }
   ],
   "source": [
    "os.system(f\"ffmpeg -i SHAUN숀-WayBackHomeCOVER.mp3 temp.wav\")"
   ]
  },
  {
   "cell_type": "code",
   "execution_count": 15,
   "id": "b3dfa5c1-6d36-4529-97e0-e0f5de53f1f9",
   "metadata": {
    "scrolled": true,
    "tags": []
   },
   "outputs": [
    {
     "name": "stdout",
     "output_type": "stream",
     "text": [
      "Requirement already satisfied: soundfile in /opt/conda/lib/python3.8/site-packages (0.10.3.post1)\n",
      "Requirement already satisfied: cffi>=1.0 in /opt/conda/lib/python3.8/site-packages (from soundfile) (1.14.6)\n",
      "Requirement already satisfied: pycparser in /opt/conda/lib/python3.8/site-packages (from cffi>=1.0->soundfile) (2.20)\n",
      "\u001b[33mWARNING: Running pip as the 'root' user can result in broken permissions and conflicting behaviour with the system package manager. It is recommended to use a virtual environment instead: https://pip.pypa.io/warnings/venv\u001b[0m\n"
     ]
    },
    {
     "name": "stderr",
     "output_type": "stream",
     "text": [
      "ffmpeg version 4.2.7-0ubuntu0.1 Copyright (c) 2000-2022 the FFmpeg developers\n",
      "  built with gcc 9 (Ubuntu 9.4.0-1ubuntu1~20.04.1)\n",
      "  configuration: --prefix=/usr --extra-version=0ubuntu0.1 --toolchain=hardened --libdir=/usr/lib/x86_64-linux-gnu --incdir=/usr/include/x86_64-linux-gnu --arch=amd64 --enable-gpl --disable-stripping --enable-avresample --disable-filter=resample --enable-avisynth --enable-gnutls --enable-ladspa --enable-libaom --enable-libass --enable-libbluray --enable-libbs2b --enable-libcaca --enable-libcdio --enable-libcodec2 --enable-libflite --enable-libfontconfig --enable-libfreetype --enable-libfribidi --enable-libgme --enable-libgsm --enable-libjack --enable-libmp3lame --enable-libmysofa --enable-libopenjpeg --enable-libopenmpt --enable-libopus --enable-libpulse --enable-librsvg --enable-librubberband --enable-libshine --enable-libsnappy --enable-libsoxr --enable-libspeex --enable-libssh --enable-libtheora --enable-libtwolame --enable-libvidstab --enable-libvorbis --enable-libvpx --enable-libwavpack --enable-libwebp --enable-libx265 --enable-libxml2 --enable-libxvid --enable-libzmq --enable-libzvbi --enable-lv2 --enable-omx --enable-openal --enable-opencl --enable-opengl --enable-sdl2 --enable-libdc1394 --enable-libdrm --enable-libiec61883 --enable-nvenc --enable-chromaprint --enable-frei0r --enable-libx264 --enable-shared\n",
      "  libavutil      56. 31.100 / 56. 31.100\n",
      "  libavcodec     58. 54.100 / 58. 54.100\n",
      "  libavformat    58. 29.100 / 58. 29.100\n",
      "  libavdevice    58.  8.100 / 58.  8.100\n",
      "  libavfilter     7. 57.100 /  7. 57.100\n",
      "  libavresample   4.  0.  0 /  4.  0.  0\n",
      "  libswscale      5.  5.100 /  5.  5.100\n",
      "  libswresample   3.  5.100 /  3.  5.100\n",
      "  libpostproc    55.  5.100 / 55.  5.100\n",
      "/workspace/youtube_download/./[TJ노래방]: No such file or directory\n",
      "/opt/conda/lib/python3.8/site-packages/librosa/util/decorators.py:88: UserWarning: PySoundFile failed. Trying audioread instead.\n",
      "  return f(*args, **kwargs)\n"
     ]
    },
    {
     "ename": "FileNotFoundError",
     "evalue": "[Errno 2] No such file or directory: 'temp.wav'",
     "output_type": "error",
     "traceback": [
      "\u001b[0;31m---------------------------------------------------------------------------\u001b[0m",
      "\u001b[0;31mRuntimeError\u001b[0m                              Traceback (most recent call last)",
      "\u001b[0;32m/opt/conda/lib/python3.8/site-packages/librosa/core/audio.py\u001b[0m in \u001b[0;36mload\u001b[0;34m(path, sr, mono, offset, duration, dtype, res_type)\u001b[0m\n\u001b[1;32m    163\u001b[0m         \u001b[0;32mtry\u001b[0m\u001b[0;34m:\u001b[0m\u001b[0;34m\u001b[0m\u001b[0;34m\u001b[0m\u001b[0m\n\u001b[0;32m--> 164\u001b[0;31m             \u001b[0my\u001b[0m\u001b[0;34m,\u001b[0m \u001b[0msr_native\u001b[0m \u001b[0;34m=\u001b[0m \u001b[0m__soundfile_load\u001b[0m\u001b[0;34m(\u001b[0m\u001b[0mpath\u001b[0m\u001b[0;34m,\u001b[0m \u001b[0moffset\u001b[0m\u001b[0;34m,\u001b[0m \u001b[0mduration\u001b[0m\u001b[0;34m,\u001b[0m \u001b[0mdtype\u001b[0m\u001b[0;34m)\u001b[0m\u001b[0;34m\u001b[0m\u001b[0;34m\u001b[0m\u001b[0m\n\u001b[0m\u001b[1;32m    165\u001b[0m \u001b[0;34m\u001b[0m\u001b[0m\n",
      "\u001b[0;32m/opt/conda/lib/python3.8/site-packages/librosa/core/audio.py\u001b[0m in \u001b[0;36m__soundfile_load\u001b[0;34m(path, offset, duration, dtype)\u001b[0m\n\u001b[1;32m    194\u001b[0m         \u001b[0;31m# Otherwise, create the soundfile object\u001b[0m\u001b[0;34m\u001b[0m\u001b[0;34m\u001b[0m\u001b[0;34m\u001b[0m\u001b[0m\n\u001b[0;32m--> 195\u001b[0;31m         \u001b[0mcontext\u001b[0m \u001b[0;34m=\u001b[0m \u001b[0msf\u001b[0m\u001b[0;34m.\u001b[0m\u001b[0mSoundFile\u001b[0m\u001b[0;34m(\u001b[0m\u001b[0mpath\u001b[0m\u001b[0;34m)\u001b[0m\u001b[0;34m\u001b[0m\u001b[0;34m\u001b[0m\u001b[0m\n\u001b[0m\u001b[1;32m    196\u001b[0m \u001b[0;34m\u001b[0m\u001b[0m\n",
      "\u001b[0;32m/opt/conda/lib/python3.8/site-packages/soundfile.py\u001b[0m in \u001b[0;36m__init__\u001b[0;34m(self, file, mode, samplerate, channels, subtype, endian, format, closefd)\u001b[0m\n\u001b[1;32m    628\u001b[0m                                          format, subtype, endian)\n\u001b[0;32m--> 629\u001b[0;31m         \u001b[0mself\u001b[0m\u001b[0;34m.\u001b[0m\u001b[0m_file\u001b[0m \u001b[0;34m=\u001b[0m \u001b[0mself\u001b[0m\u001b[0;34m.\u001b[0m\u001b[0m_open\u001b[0m\u001b[0;34m(\u001b[0m\u001b[0mfile\u001b[0m\u001b[0;34m,\u001b[0m \u001b[0mmode_int\u001b[0m\u001b[0;34m,\u001b[0m \u001b[0mclosefd\u001b[0m\u001b[0;34m)\u001b[0m\u001b[0;34m\u001b[0m\u001b[0;34m\u001b[0m\u001b[0m\n\u001b[0m\u001b[1;32m    630\u001b[0m         \u001b[0;32mif\u001b[0m \u001b[0mset\u001b[0m\u001b[0;34m(\u001b[0m\u001b[0mmode\u001b[0m\u001b[0;34m)\u001b[0m\u001b[0;34m.\u001b[0m\u001b[0missuperset\u001b[0m\u001b[0;34m(\u001b[0m\u001b[0;34m'r+'\u001b[0m\u001b[0;34m)\u001b[0m \u001b[0;32mand\u001b[0m \u001b[0mself\u001b[0m\u001b[0;34m.\u001b[0m\u001b[0mseekable\u001b[0m\u001b[0;34m(\u001b[0m\u001b[0;34m)\u001b[0m\u001b[0;34m:\u001b[0m\u001b[0;34m\u001b[0m\u001b[0;34m\u001b[0m\u001b[0m\n",
      "\u001b[0;32m/opt/conda/lib/python3.8/site-packages/soundfile.py\u001b[0m in \u001b[0;36m_open\u001b[0;34m(self, file, mode_int, closefd)\u001b[0m\n\u001b[1;32m   1182\u001b[0m             \u001b[0;32mraise\u001b[0m \u001b[0mTypeError\u001b[0m\u001b[0;34m(\u001b[0m\u001b[0;34m\"Invalid file: {0!r}\"\u001b[0m\u001b[0;34m.\u001b[0m\u001b[0mformat\u001b[0m\u001b[0;34m(\u001b[0m\u001b[0mself\u001b[0m\u001b[0;34m.\u001b[0m\u001b[0mname\u001b[0m\u001b[0;34m)\u001b[0m\u001b[0;34m)\u001b[0m\u001b[0;34m\u001b[0m\u001b[0;34m\u001b[0m\u001b[0m\n\u001b[0;32m-> 1183\u001b[0;31m         _error_check(_snd.sf_error(file_ptr),\n\u001b[0m\u001b[1;32m   1184\u001b[0m                      \"Error opening {0!r}: \".format(self.name))\n",
      "\u001b[0;32m/opt/conda/lib/python3.8/site-packages/soundfile.py\u001b[0m in \u001b[0;36m_error_check\u001b[0;34m(err, prefix)\u001b[0m\n\u001b[1;32m   1356\u001b[0m         \u001b[0merr_str\u001b[0m \u001b[0;34m=\u001b[0m \u001b[0m_snd\u001b[0m\u001b[0;34m.\u001b[0m\u001b[0msf_error_number\u001b[0m\u001b[0;34m(\u001b[0m\u001b[0merr\u001b[0m\u001b[0;34m)\u001b[0m\u001b[0;34m\u001b[0m\u001b[0;34m\u001b[0m\u001b[0m\n\u001b[0;32m-> 1357\u001b[0;31m         \u001b[0;32mraise\u001b[0m \u001b[0mRuntimeError\u001b[0m\u001b[0;34m(\u001b[0m\u001b[0mprefix\u001b[0m \u001b[0;34m+\u001b[0m \u001b[0m_ffi\u001b[0m\u001b[0;34m.\u001b[0m\u001b[0mstring\u001b[0m\u001b[0;34m(\u001b[0m\u001b[0merr_str\u001b[0m\u001b[0;34m)\u001b[0m\u001b[0;34m.\u001b[0m\u001b[0mdecode\u001b[0m\u001b[0;34m(\u001b[0m\u001b[0;34m'utf-8'\u001b[0m\u001b[0;34m,\u001b[0m \u001b[0;34m'replace'\u001b[0m\u001b[0;34m)\u001b[0m\u001b[0;34m)\u001b[0m\u001b[0;34m\u001b[0m\u001b[0;34m\u001b[0m\u001b[0m\n\u001b[0m\u001b[1;32m   1358\u001b[0m \u001b[0;34m\u001b[0m\u001b[0m\n",
      "\u001b[0;31mRuntimeError\u001b[0m: Error opening 'temp.wav': System error.",
      "\nDuring handling of the above exception, another exception occurred:\n",
      "\u001b[0;31mFileNotFoundError\u001b[0m                         Traceback (most recent call last)",
      "\u001b[0;32m/tmp/ipykernel_49199/3041196359.py\u001b[0m in \u001b[0;36m<module>\u001b[0;34m\u001b[0m\n\u001b[1;32m     13\u001b[0m     \u001b[0mos\u001b[0m\u001b[0;34m.\u001b[0m\u001b[0mremove\u001b[0m\u001b[0;34m(\u001b[0m\u001b[0;34m'temp.wav'\u001b[0m\u001b[0;34m)\u001b[0m\u001b[0;34m\u001b[0m\u001b[0;34m\u001b[0m\u001b[0m\n\u001b[1;32m     14\u001b[0m \u001b[0mos\u001b[0m\u001b[0;34m.\u001b[0m\u001b[0msystem\u001b[0m\u001b[0;34m(\u001b[0m\u001b[0;34mf\"ffmpeg -i {filename} temp.wav\"\u001b[0m\u001b[0;34m)\u001b[0m\u001b[0;34m\u001b[0m\u001b[0;34m\u001b[0m\u001b[0m\n\u001b[0;32m---> 15\u001b[0;31m \u001b[0my\u001b[0m\u001b[0;34m,\u001b[0m \u001b[0msr\u001b[0m \u001b[0;34m=\u001b[0m \u001b[0mlibrosa\u001b[0m\u001b[0;34m.\u001b[0m\u001b[0mload\u001b[0m\u001b[0;34m(\u001b[0m\u001b[0;34m'temp.wav'\u001b[0m\u001b[0;34m,\u001b[0m \u001b[0msr\u001b[0m\u001b[0;34m=\u001b[0m\u001b[0msample_rate\u001b[0m\u001b[0;34m)\u001b[0m\u001b[0;34m\u001b[0m\u001b[0;34m\u001b[0m\u001b[0m\n\u001b[0m\u001b[1;32m     16\u001b[0m \u001b[0my_shifted\u001b[0m \u001b[0;34m=\u001b[0m \u001b[0mlibrosa\u001b[0m\u001b[0;34m.\u001b[0m\u001b[0meffects\u001b[0m\u001b[0;34m.\u001b[0m\u001b[0mpitch_shift\u001b[0m\u001b[0;34m(\u001b[0m\u001b[0my\u001b[0m\u001b[0;34m,\u001b[0m \u001b[0msr\u001b[0m\u001b[0;34m,\u001b[0m \u001b[0mn_steps\u001b[0m\u001b[0;34m=\u001b[0m\u001b[0mpitch_change\u001b[0m\u001b[0;34m)\u001b[0m\u001b[0;34m\u001b[0m\u001b[0;34m\u001b[0m\u001b[0m\n\u001b[1;32m     17\u001b[0m \u001b[0;31m# librosa.output.write_wav(filename[:-4] + str(pitch_change) + '.wav')\u001b[0m\u001b[0;34m\u001b[0m\u001b[0;34m\u001b[0m\u001b[0;34m\u001b[0m\u001b[0m\n",
      "\u001b[0;32m/opt/conda/lib/python3.8/site-packages/librosa/util/decorators.py\u001b[0m in \u001b[0;36minner_f\u001b[0;34m(*args, **kwargs)\u001b[0m\n\u001b[1;32m     86\u001b[0m             \u001b[0mextra_args\u001b[0m \u001b[0;34m=\u001b[0m \u001b[0mlen\u001b[0m\u001b[0;34m(\u001b[0m\u001b[0margs\u001b[0m\u001b[0;34m)\u001b[0m \u001b[0;34m-\u001b[0m \u001b[0mlen\u001b[0m\u001b[0;34m(\u001b[0m\u001b[0mall_args\u001b[0m\u001b[0;34m)\u001b[0m\u001b[0;34m\u001b[0m\u001b[0;34m\u001b[0m\u001b[0m\n\u001b[1;32m     87\u001b[0m             \u001b[0;32mif\u001b[0m \u001b[0mextra_args\u001b[0m \u001b[0;34m<=\u001b[0m \u001b[0;36m0\u001b[0m\u001b[0;34m:\u001b[0m\u001b[0;34m\u001b[0m\u001b[0;34m\u001b[0m\u001b[0m\n\u001b[0;32m---> 88\u001b[0;31m                 \u001b[0;32mreturn\u001b[0m \u001b[0mf\u001b[0m\u001b[0;34m(\u001b[0m\u001b[0;34m*\u001b[0m\u001b[0margs\u001b[0m\u001b[0;34m,\u001b[0m \u001b[0;34m**\u001b[0m\u001b[0mkwargs\u001b[0m\u001b[0;34m)\u001b[0m\u001b[0;34m\u001b[0m\u001b[0;34m\u001b[0m\u001b[0m\n\u001b[0m\u001b[1;32m     89\u001b[0m \u001b[0;34m\u001b[0m\u001b[0m\n\u001b[1;32m     90\u001b[0m             \u001b[0;31m# extra_args > 0\u001b[0m\u001b[0;34m\u001b[0m\u001b[0;34m\u001b[0m\u001b[0;34m\u001b[0m\u001b[0m\n",
      "\u001b[0;32m/opt/conda/lib/python3.8/site-packages/librosa/core/audio.py\u001b[0m in \u001b[0;36mload\u001b[0;34m(path, sr, mono, offset, duration, dtype, res_type)\u001b[0m\n\u001b[1;32m    168\u001b[0m             \u001b[0;32mif\u001b[0m \u001b[0misinstance\u001b[0m\u001b[0;34m(\u001b[0m\u001b[0mpath\u001b[0m\u001b[0;34m,\u001b[0m \u001b[0;34m(\u001b[0m\u001b[0mstr\u001b[0m\u001b[0;34m,\u001b[0m \u001b[0mpathlib\u001b[0m\u001b[0;34m.\u001b[0m\u001b[0mPurePath\u001b[0m\u001b[0;34m)\u001b[0m\u001b[0;34m)\u001b[0m\u001b[0;34m:\u001b[0m\u001b[0;34m\u001b[0m\u001b[0;34m\u001b[0m\u001b[0m\n\u001b[1;32m    169\u001b[0m                 \u001b[0mwarnings\u001b[0m\u001b[0;34m.\u001b[0m\u001b[0mwarn\u001b[0m\u001b[0;34m(\u001b[0m\u001b[0;34m\"PySoundFile failed. Trying audioread instead.\"\u001b[0m\u001b[0;34m,\u001b[0m \u001b[0mstacklevel\u001b[0m\u001b[0;34m=\u001b[0m\u001b[0;36m2\u001b[0m\u001b[0;34m)\u001b[0m\u001b[0;34m\u001b[0m\u001b[0;34m\u001b[0m\u001b[0m\n\u001b[0;32m--> 170\u001b[0;31m                 \u001b[0my\u001b[0m\u001b[0;34m,\u001b[0m \u001b[0msr_native\u001b[0m \u001b[0;34m=\u001b[0m \u001b[0m__audioread_load\u001b[0m\u001b[0;34m(\u001b[0m\u001b[0mpath\u001b[0m\u001b[0;34m,\u001b[0m \u001b[0moffset\u001b[0m\u001b[0;34m,\u001b[0m \u001b[0mduration\u001b[0m\u001b[0;34m,\u001b[0m \u001b[0mdtype\u001b[0m\u001b[0;34m)\u001b[0m\u001b[0;34m\u001b[0m\u001b[0;34m\u001b[0m\u001b[0m\n\u001b[0m\u001b[1;32m    171\u001b[0m             \u001b[0;32melse\u001b[0m\u001b[0;34m:\u001b[0m\u001b[0;34m\u001b[0m\u001b[0;34m\u001b[0m\u001b[0m\n\u001b[1;32m    172\u001b[0m                 \u001b[0;32mraise\u001b[0m \u001b[0mexc\u001b[0m\u001b[0;34m\u001b[0m\u001b[0;34m\u001b[0m\u001b[0m\n",
      "\u001b[0;32m/opt/conda/lib/python3.8/site-packages/librosa/core/audio.py\u001b[0m in \u001b[0;36m__audioread_load\u001b[0;34m(path, offset, duration, dtype)\u001b[0m\n\u001b[1;32m    224\u001b[0m     \u001b[0;32melse\u001b[0m\u001b[0;34m:\u001b[0m\u001b[0;34m\u001b[0m\u001b[0;34m\u001b[0m\u001b[0m\n\u001b[1;32m    225\u001b[0m         \u001b[0;31m# If the input was not an audioread object, try to open it\u001b[0m\u001b[0;34m\u001b[0m\u001b[0;34m\u001b[0m\u001b[0;34m\u001b[0m\u001b[0m\n\u001b[0;32m--> 226\u001b[0;31m         \u001b[0mreader\u001b[0m \u001b[0;34m=\u001b[0m \u001b[0maudioread\u001b[0m\u001b[0;34m.\u001b[0m\u001b[0maudio_open\u001b[0m\u001b[0;34m(\u001b[0m\u001b[0mpath\u001b[0m\u001b[0;34m)\u001b[0m\u001b[0;34m\u001b[0m\u001b[0;34m\u001b[0m\u001b[0m\n\u001b[0m\u001b[1;32m    227\u001b[0m \u001b[0;34m\u001b[0m\u001b[0m\n\u001b[1;32m    228\u001b[0m     \u001b[0;32mwith\u001b[0m \u001b[0mreader\u001b[0m \u001b[0;32mas\u001b[0m \u001b[0minput_file\u001b[0m\u001b[0;34m:\u001b[0m\u001b[0;34m\u001b[0m\u001b[0;34m\u001b[0m\u001b[0m\n",
      "\u001b[0;32m/opt/conda/lib/python3.8/site-packages/audioread/__init__.py\u001b[0m in \u001b[0;36maudio_open\u001b[0;34m(path, backends)\u001b[0m\n\u001b[1;32m    109\u001b[0m     \u001b[0;32mfor\u001b[0m \u001b[0mBackendClass\u001b[0m \u001b[0;32min\u001b[0m \u001b[0mbackends\u001b[0m\u001b[0;34m:\u001b[0m\u001b[0;34m\u001b[0m\u001b[0;34m\u001b[0m\u001b[0m\n\u001b[1;32m    110\u001b[0m         \u001b[0;32mtry\u001b[0m\u001b[0;34m:\u001b[0m\u001b[0;34m\u001b[0m\u001b[0;34m\u001b[0m\u001b[0m\n\u001b[0;32m--> 111\u001b[0;31m             \u001b[0;32mreturn\u001b[0m \u001b[0mBackendClass\u001b[0m\u001b[0;34m(\u001b[0m\u001b[0mpath\u001b[0m\u001b[0;34m)\u001b[0m\u001b[0;34m\u001b[0m\u001b[0;34m\u001b[0m\u001b[0m\n\u001b[0m\u001b[1;32m    112\u001b[0m         \u001b[0;32mexcept\u001b[0m \u001b[0mDecodeError\u001b[0m\u001b[0;34m:\u001b[0m\u001b[0;34m\u001b[0m\u001b[0;34m\u001b[0m\u001b[0m\n\u001b[1;32m    113\u001b[0m             \u001b[0;32mpass\u001b[0m\u001b[0;34m\u001b[0m\u001b[0;34m\u001b[0m\u001b[0m\n",
      "\u001b[0;32m/opt/conda/lib/python3.8/site-packages/audioread/rawread.py\u001b[0m in \u001b[0;36m__init__\u001b[0;34m(self, filename)\u001b[0m\n\u001b[1;32m     60\u001b[0m     \"\"\"\n\u001b[1;32m     61\u001b[0m     \u001b[0;32mdef\u001b[0m \u001b[0m__init__\u001b[0m\u001b[0;34m(\u001b[0m\u001b[0mself\u001b[0m\u001b[0;34m,\u001b[0m \u001b[0mfilename\u001b[0m\u001b[0;34m)\u001b[0m\u001b[0;34m:\u001b[0m\u001b[0;34m\u001b[0m\u001b[0;34m\u001b[0m\u001b[0m\n\u001b[0;32m---> 62\u001b[0;31m         \u001b[0mself\u001b[0m\u001b[0;34m.\u001b[0m\u001b[0m_fh\u001b[0m \u001b[0;34m=\u001b[0m \u001b[0mopen\u001b[0m\u001b[0;34m(\u001b[0m\u001b[0mfilename\u001b[0m\u001b[0;34m,\u001b[0m \u001b[0;34m'rb'\u001b[0m\u001b[0;34m)\u001b[0m\u001b[0;34m\u001b[0m\u001b[0;34m\u001b[0m\u001b[0m\n\u001b[0m\u001b[1;32m     63\u001b[0m \u001b[0;34m\u001b[0m\u001b[0m\n\u001b[1;32m     64\u001b[0m         \u001b[0;32mtry\u001b[0m\u001b[0;34m:\u001b[0m\u001b[0;34m\u001b[0m\u001b[0;34m\u001b[0m\u001b[0m\n",
      "\u001b[0;31mFileNotFoundError\u001b[0m: [Errno 2] No such file or directory: 'temp.wav'"
     ]
    }
   ],
   "source": [
    "# pitch shift\n",
    "import librosa\n",
    "!pip install soundfile\n",
    "import soundfile as sf\n",
    "########################\n",
    "filename = new_file # 'output.wav'\n",
    "pitch_change = -5\n",
    "\n",
    "sample_rate = 44100\n",
    "export_file_format = 'wav'\n",
    "########################\n",
    "if os.path.isfile('temp.wav'):\n",
    "    os.remove('temp.wav')\n",
    "os.system(f\"ffmpeg -i {filename} temp.wav\")\n",
    "y, sr = librosa.load('temp.wav', sr=sample_rate)\n",
    "y_shifted = librosa.effects.pitch_shift(y, sr, n_steps=pitch_change)\n",
    "# librosa.output.write_wav(filename[:-4] + str(pitch_change) + '.wav')\n",
    "dst_name = filename[:-4] + str(pitch_change) + '.' + export_file_format\n",
    "sf.write(dst_name, y_shifted, sample_rate, format=export_file_format)\n",
    "\n",
    "!rm temp.wav"
   ]
  },
  {
   "cell_type": "code",
   "execution_count": 4,
   "id": "59183106-7149-4a98-b210-7926597bf414",
   "metadata": {
    "scrolled": true,
    "tags": []
   },
   "outputs": [
    {
     "name": "stderr",
     "output_type": "stream",
     "text": [
      "<>:2: DeprecationWarning: invalid escape sequence \\ \n",
      "<>:2: DeprecationWarning: invalid escape sequence \\ \n",
      "/tmp/ipykernel_49199/3670295498.py:2: DeprecationWarning: invalid escape sequence \\ \n",
      "  src = dst_name.replace(' ', '\\ ')\n"
     ]
    },
    {
     "name": "stdout",
     "output_type": "stream",
     "text": [
      "ffmpeg version 4.2.7-0ubuntu0.1 Copyright (c) 2000-2022 the FFmpeg developers\n",
      "  built with gcc 9 (Ubuntu 9.4.0-1ubuntu1~20.04.1)\n",
      "  configuration: --prefix=/usr --extra-version=0ubuntu0.1 --toolchain=hardened --libdir=/usr/lib/x86_64-linux-gnu --incdir=/usr/include/x86_64-linux-gnu --arch=amd64 --enable-gpl --disable-stripping --enable-avresample --disable-filter=resample --enable-avisynth --enable-gnutls --enable-ladspa --enable-libaom --enable-libass --enable-libbluray --enable-libbs2b --enable-libcaca --enable-libcdio --enable-libcodec2 --enable-libflite --enable-libfontconfig --enable-libfreetype --enable-libfribidi --enable-libgme --enable-libgsm --enable-libjack --enable-libmp3lame --enable-libmysofa --enable-libopenjpeg --enable-libopenmpt --enable-libopus --enable-libpulse --enable-librsvg --enable-librubberband --enable-libshine --enable-libsnappy --enable-libsoxr --enable-libspeex --enable-libssh --enable-libtheora --enable-libtwolame --enable-libvidstab --enable-libvorbis --enable-libvpx --enable-libwavpack --enable-libwebp --enable-libx265 --enable-libxml2 --enable-libxvid --enable-libzmq --enable-libzvbi --enable-lv2 --enable-omx --enable-openal --enable-opencl --enable-opengl --enable-sdl2 --enable-libdc1394 --enable-libdrm --enable-libiec61883 --enable-nvenc --enable-chromaprint --enable-frei0r --enable-libx264 --enable-shared\n",
      "  libavutil      56. 31.100 / 56. 31.100\n",
      "  libavcodec     58. 54.100 / 58. 54.100\n",
      "  libavformat    58. 29.100 / 58. 29.100\n",
      "  libavdevice    58.  8.100 / 58.  8.100\n",
      "  libavfilter     7. 57.100 /  7. 57.100\n",
      "  libavresample   4.  0.  0 /  4.  0.  0\n",
      "  libswscale      5.  5.100 /  5.  5.100\n",
      "  libswresample   3.  5.100 /  3.  5.100\n",
      "  libpostproc    55.  5.100 / 55.  5.100\n",
      "\u001b[0;33mGuessed Channel Layout for Input Stream #0.0 : mono\n",
      "\u001b[0mInput #0, wav, from '/workspace/youtube_download/./[TJ노래방] 나의 X에게 - 경서  TJ Karaoke-5.wav':\n",
      "  Duration: 00:03:12.31, bitrate: 705 kb/s\n",
      "    Stream #0:0: Audio: pcm_s16le ([1][0][0][0] / 0x0001), 44100 Hz, mono, s16, 705 kb/s\n",
      "Stream mapping:\n",
      "  Stream #0:0 -> #0:0 (pcm_s16le (native) -> mp3 (libmp3lame))\n",
      "Press [q] to stop, [?] for help\n",
      "Output #0, mp3, to '/workspace/youtube_download/./[TJ노래방] 나의 X에게 - 경서  TJ Karaoke-5.mp3':\n",
      "  Metadata:\n",
      "    TSSE            : Lavf58.29.100\n",
      "    Stream #0:0: Audio: mp3 (libmp3lame), 44100 Hz, mono, s16p\n",
      "    Metadata:\n",
      "      encoder         : Lavc58.54.100 libmp3lame\n",
      "size=    1503kB time=00:03:12.31 bitrate=  64.0kbits/s speed=91.5x    \n",
      "video:0kB audio:1503kB subtitle:0kB other streams:0kB global headers:0kB muxing overhead: 0.014753%\n"
     ]
    }
   ],
   "source": [
    "# ext change\n",
    "src = dst_name.replace(' ', '\\ ')\n",
    "dst_ext = 'mp3'\n",
    "\n",
    "!ffmpeg -i {src} {src[:-3] + dst_ext}"
   ]
  },
  {
   "cell_type": "code",
   "execution_count": 7,
   "id": "4483854f",
   "metadata": {},
   "outputs": [],
   "source": [
    "# remove all\n",
    "import glob\n",
    "\n",
    "exts = ['mp3', 'wav', 'mp4', 'wax', 'm4a']\n",
    "\n",
    "files = []\n",
    "for ext in exts:\n",
    "    files += glob.glob(f'./*.{ext}')\n",
    "    \n",
    "for file in files:\n",
    "    os.remove(file)"
   ]
  },
  {
   "cell_type": "code",
   "execution_count": null,
   "id": "7cbf4118-172c-4c78-b9b4-7c270f917a1b",
   "metadata": {},
   "outputs": [],
   "source": []
  }
 ],
 "metadata": {
  "kernelspec": {
   "display_name": "Python 3 (ipykernel)",
   "language": "python",
   "name": "python3"
  },
  "language_info": {
   "codemirror_mode": {
    "name": "ipython",
    "version": 3
   },
   "file_extension": ".py",
   "mimetype": "text/x-python",
   "name": "python",
   "nbconvert_exporter": "python",
   "pygments_lexer": "ipython3",
   "version": "3.8.10"
  }
 },
 "nbformat": 4,
 "nbformat_minor": 5
}
